<svg width="106" height="32" viewBox="0 0 106 32" fill="none" xmlns="http://www.w3.org/2000/svg">
<path d="M16.3916 5.2959L10.9769 0.484698L4.15493e-05 12.8384L5.41473 17.6496L16.3916 5.2959Z" fill="#1B31A7"/>
<rect x="7.26099" y="31.3306" width="7.26117" height="16.4794" transform="rotate(-180 7.26099 31.3306)" fill="#2D4FFF"/>
<rect x="16.3916" y="12.8379" width="7.33307" height="16.3916" transform="rotate(90 16.3916 12.8379)" fill="#1D3BD9"/>
<path d="M22.8964 26.2437V13.1764H31.6018V14.9985H24.9577V18.9002H30.5159V20.6119H24.9577V26.2437H22.8964ZM37.0468 26.4277C36.2861 26.4277 35.6051 26.2989 35.0039 26.0412C34.4027 25.7713 33.8812 25.4032 33.4395 24.9369C33.0101 24.4707 32.6788 23.9431 32.4457 23.3541C32.2125 22.7529 32.096 22.1149 32.096 21.4401C32.096 20.7652 32.2125 20.1272 32.4457 19.526C32.6788 18.9248 33.0101 18.3972 33.4395 17.9432C33.8812 17.4769 34.4027 17.115 35.0039 16.8573C35.6174 16.5874 36.2984 16.4524 37.0468 16.4524C37.7953 16.4524 38.4701 16.5874 39.0713 16.8573C39.6848 17.115 40.2063 17.4769 40.6357 17.9432C41.0774 18.3972 41.4148 18.9248 41.6479 19.526C41.8811 20.1272 41.9976 20.7652 41.9976 21.4401C41.9976 22.1149 41.8811 22.7529 41.6479 23.3541C41.4148 23.9431 41.0774 24.4707 40.6357 24.9369C40.2063 25.4032 39.6848 25.7713 39.0713 26.0412C38.4701 26.2989 37.7953 26.4277 37.0468 26.4277ZM34.1757 21.4585C34.1757 22.072 34.3045 22.6241 34.5622 23.1149C34.8199 23.6057 35.1634 23.9922 35.5929 24.2744C36.0223 24.5566 36.5069 24.6977 37.0468 24.6977C37.5744 24.6977 38.0529 24.5566 38.4824 24.2744C38.9241 23.9799 39.2738 23.5873 39.5314 23.0965C39.7891 22.5934 39.9179 22.0413 39.9179 21.4401C39.9179 20.8266 39.7891 20.2744 39.5314 19.7837C39.2738 19.2929 38.9241 18.9064 38.4824 18.6242C38.0529 18.3297 37.5744 18.1825 37.0468 18.1825C36.5069 18.1825 36.0223 18.3297 35.5929 18.6242C35.1634 18.9186 34.8199 19.3113 34.5622 19.8021C34.3045 20.2806 34.1757 20.8327 34.1757 21.4585ZM49.2042 18.3665C48.4189 18.3788 47.7195 18.5567 47.1061 18.9002C46.5048 19.2438 46.0754 19.7284 45.8177 20.3542V26.2437H43.7932V16.6181H45.6705V18.7714C46.0018 18.1088 46.4374 17.5812 46.9772 17.1886C47.5171 16.7837 48.0876 16.5629 48.6888 16.526C48.8115 16.526 48.9097 16.526 48.9833 16.526C49.0692 16.526 49.1428 16.5322 49.2042 16.5444V18.3665ZM65.4006 26.2437H63.3761V20.8511C63.3761 19.9554 63.2289 19.299 62.9344 18.8818C62.6399 18.4647 62.2105 18.2561 61.6461 18.2561C61.0817 18.2561 60.5541 18.4708 60.0633 18.9002C59.5848 19.3174 59.2474 19.8634 59.051 20.5382V26.2437H57.0265V20.8511C57.0265 19.9554 56.8793 19.299 56.5848 18.8818C56.2904 18.4647 55.8671 18.2561 55.3149 18.2561C54.7505 18.2561 54.2229 18.4647 53.7321 18.8818C53.2536 19.299 52.9101 19.845 52.7015 20.5198V26.2437H50.677V16.6181H52.5174V18.5505C52.8978 17.8757 53.3947 17.3604 54.0082 17.0046C54.6339 16.6365 55.3456 16.4524 56.1431 16.4524C56.9407 16.4524 57.5664 16.661 58.0204 17.0782C58.4866 17.4954 58.775 18.0168 58.8854 18.6426C59.3026 17.9309 59.8118 17.3911 60.413 17.023C61.0265 16.6426 61.7258 16.4524 62.5111 16.4524C63.0755 16.4524 63.5479 16.5567 63.9282 16.7653C64.3086 16.9739 64.6031 17.2622 64.8117 17.6303C65.0203 17.9861 65.1675 18.4033 65.2534 18.8818C65.3515 19.3481 65.4006 19.845 65.4006 20.3726V26.2437ZM67.0342 23.4278C67.0342 22.8143 67.2059 22.2805 67.5495 21.8266C67.9053 21.3603 68.39 21.0045 69.0034 20.7591C69.6169 20.5014 70.3286 20.3726 71.1384 20.3726C71.5678 20.3726 72.0034 20.4033 72.4451 20.4646C72.8991 20.526 73.2978 20.6241 73.6414 20.7591V20.1517C73.6414 19.4769 73.4389 18.9493 73.034 18.569C72.6291 18.1886 72.0463 17.9984 71.2856 17.9984C70.7457 17.9984 70.2366 18.0966 69.758 18.2929C69.2795 18.4769 68.7703 18.7407 68.2305 19.0843L67.5495 17.7223C68.1875 17.2929 68.8255 16.9739 69.4636 16.7653C70.1139 16.5567 70.7948 16.4524 71.5065 16.4524C72.7948 16.4524 73.807 16.796 74.5432 17.4831C75.2917 18.1579 75.6659 19.1211 75.6659 20.3726V23.9615C75.6659 24.1946 75.7027 24.3603 75.7763 24.4584C75.8622 24.5566 76.0033 24.6118 76.1996 24.6241V26.2437C76.0156 26.2805 75.8499 26.305 75.7027 26.3173C75.5555 26.3295 75.4328 26.3357 75.3346 26.3357C74.9052 26.3357 74.58 26.2314 74.3592 26.0228C74.1383 25.8142 74.0095 25.5688 73.9727 25.2866L73.9175 24.7345C73.5003 25.2743 72.9666 25.6915 72.3163 25.986C71.666 26.2805 71.0095 26.4277 70.347 26.4277C69.709 26.4277 69.1384 26.2989 68.6354 26.0412C68.1323 25.7713 67.7397 25.4093 67.4575 24.9553C67.1753 24.5014 67.0342 23.9922 67.0342 23.4278ZM73.1629 24.0167C73.3101 23.8572 73.4267 23.6977 73.5126 23.5382C73.5985 23.3787 73.6414 23.2376 73.6414 23.1149V22.0106C73.2978 21.8756 72.9359 21.7775 72.5555 21.7161C72.1752 21.6425 71.8009 21.6057 71.4329 21.6057C70.6967 21.6057 70.0955 21.7529 69.6292 22.0474C69.1752 22.3419 68.9482 22.7468 68.9482 23.2621C68.9482 23.5443 69.0219 23.8143 69.1691 24.0719C69.3286 24.3296 69.5495 24.5382 69.8317 24.6977C70.1261 24.8572 70.4881 24.9369 70.9175 24.9369C71.3592 24.9369 71.7825 24.851 72.1874 24.6793C72.5923 24.5075 72.9175 24.2866 73.1629 24.0167ZM83.3121 26.4277C82.5759 26.4277 81.9073 26.2559 81.306 25.9124C80.7171 25.5565 80.2508 25.0842 79.9073 24.4952V26.2437H78.122V12.8083H80.1465V18.4401C80.5269 17.8266 80.9993 17.342 81.5637 16.9862C82.1404 16.6303 82.8152 16.4524 83.5882 16.4524C84.2262 16.4524 84.809 16.5874 85.3366 16.8573C85.8642 17.1273 86.3121 17.4954 86.6802 17.9616C87.0605 18.4278 87.3489 18.9616 87.5452 19.5628C87.7538 20.164 87.8581 20.802 87.8581 21.4769C87.8581 22.1517 87.7415 22.7897 87.5084 23.3909C87.2875 23.9922 86.9685 24.5198 86.5513 24.9737C86.1342 25.4277 85.6495 25.7835 85.0974 26.0412C84.5575 26.2989 83.9624 26.4277 83.3121 26.4277ZM82.7784 24.6977C83.2201 24.6977 83.625 24.6118 83.9931 24.44C84.3612 24.256 84.6802 24.0167 84.9501 23.7222C85.2201 23.4278 85.4225 23.0842 85.5575 22.6916C85.7047 22.2989 85.7783 21.894 85.7783 21.4769C85.7783 20.9002 85.6556 20.3603 85.4103 19.8573C85.1771 19.3542 84.8458 18.9493 84.4164 18.6426C83.987 18.3358 83.49 18.1825 82.9256 18.1825C82.5207 18.1825 82.1404 18.2806 81.7846 18.4769C81.4287 18.661 81.1097 18.9125 80.8275 19.2315C80.5576 19.5383 80.3306 19.8818 80.1465 20.2622V22.802C80.2202 23.0842 80.349 23.3419 80.533 23.575C80.7171 23.7958 80.9318 23.9922 81.1772 24.1639C81.4226 24.3234 81.6864 24.4523 81.9686 24.5504C82.2508 24.6486 82.5207 24.6977 82.7784 24.6977ZM89.6972 12.8083H91.7217V23.4646C91.7217 23.9554 91.7953 24.2682 91.9426 24.4032C92.0898 24.5382 92.2739 24.6056 92.4947 24.6056C92.7401 24.6056 92.9671 24.5811 93.1757 24.532C93.3965 24.4829 93.5867 24.4216 93.7462 24.348L94.0407 25.9492C93.7462 26.0719 93.3965 26.1762 92.9916 26.2621C92.5867 26.3479 92.2248 26.3909 91.9058 26.3909C91.2187 26.3909 90.6788 26.2007 90.2862 25.8203C89.8935 25.4277 89.6972 24.8878 89.6972 24.2007V12.8083ZM99.5764 26.4277C98.828 26.4277 98.147 26.2989 97.5335 26.0412C96.9323 25.7713 96.4109 25.4093 95.9692 24.9553C95.5274 24.4891 95.1839 23.9615 94.9385 23.3725C94.7054 22.7713 94.5888 22.1333 94.5888 21.4585C94.5888 20.5505 94.7974 19.7223 95.2146 18.9739C95.6317 18.2131 96.2145 17.6058 96.963 17.1518C97.7114 16.6856 98.5887 16.4524 99.5948 16.4524C100.601 16.4524 101.466 16.6856 102.19 17.1518C102.926 17.6058 103.497 18.207 103.902 18.9554C104.306 19.7039 104.509 20.5076 104.509 21.3664C104.509 21.5137 104.503 21.6548 104.49 21.7897C104.478 21.9124 104.466 22.0167 104.454 22.1026H96.7421C96.779 22.667 96.9323 23.164 97.2023 23.5934C97.4845 24.0106 97.8403 24.3418 98.2697 24.5872C98.6992 24.8204 99.1593 24.9369 99.6501 24.9369C100.19 24.9369 100.699 24.802 101.178 24.532C101.668 24.2621 102 23.9063 102.171 23.4646L103.902 23.9615C103.693 24.4277 103.374 24.851 102.944 25.2314C102.527 25.5995 102.03 25.894 101.454 26.1148C100.877 26.3234 100.251 26.4277 99.5764 26.4277ZM96.6869 20.7591H102.503C102.466 20.207 102.306 19.7223 102.024 19.3051C101.754 18.8757 101.405 18.5444 100.975 18.3113C100.558 18.0659 100.092 17.9432 99.5764 17.9432C99.0734 17.9432 98.6071 18.0659 98.1777 18.3113C97.7605 18.5444 97.417 18.8757 97.147 19.3051C96.8771 19.7223 96.7237 20.207 96.6869 20.7591Z" fill="#1D3BD9"/>
</svg>
